<?xml version="1.0" encoding="UTF-8" standalone="no"?>
<!-- Generator: Adobe Illustrator 23.0.3, SVG Export Plug-In . SVG Version: 6.00 Build 0)  -->

<svg
   xmlns:dc="http://purl.org/dc/elements/1.1/"
   xmlns:cc="http://creativecommons.org/ns#"
   xmlns:rdf="http://www.w3.org/1999/02/22-rdf-syntax-ns#"
   xmlns:svg="http://www.w3.org/2000/svg"
   xmlns="http://www.w3.org/2000/svg"
   xmlns:sodipodi="http://sodipodi.sourceforge.net/DTD/sodipodi-0.dtd"
   xmlns:inkscape="http://www.inkscape.org/namespaces/inkscape"
   version="1.1"
   id="Layer_1"
   x="0px"
   y="0px"
   viewBox="0 0 5000 1322.4"
   style="enable-background:new 0 0 5000 1322.4;"
   xml:space="preserve"
   sodipodi:docname="nebkas-logo-InkscapeSVG.svg"
   inkscape:version="0.92.3 (2405546, 2018-03-11)"><metadata
   id="metadata59"><rdf:RDF><cc:Work
       rdf:about=""><dc:format>image/svg+xml</dc:format><dc:type
         rdf:resource="http://purl.org/dc/dcmitype/StillImage" /><dc:title></dc:title></cc:Work></rdf:RDF></metadata><defs
   id="defs57" /><sodipodi:namedview
   pagecolor="#ffffff"
   bordercolor="#666666"
   borderopacity="1"
   objecttolerance="10"
   gridtolerance="10"
   guidetolerance="10"
   inkscape:pageopacity="0"
   inkscape:pageshadow="2"
   inkscape:window-width="1920"
   inkscape:window-height="1058"
   id="namedview55"
   showgrid="false"
   inkscape:zoom="0.4544"
   inkscape:cx="1049.1052"
   inkscape:cy="851.99871"
   inkscape:window-x="-8"
   inkscape:window-y="-8"
   inkscape:window-maximized="1"
   inkscape:current-layer="Layer_1" />
<style
   type="text/css"
   id="style2">
	.st0{fill:#119DFF;}
	.st1{fill:url(#SVGID_1_);}
	.st2{fill:url(#SVGID_2_);}
	.st3{fill:url(#SVGID_3_);}
	.st4{fill:url(#SVGID_4_);}
</style>
<g
   id="g52">
	<g
   id="g22">
		<path
   class="st0"
   d="M1571.2,681.7h50.7v70.6c20.3-27,42.8-47.3,67.4-60.7c24.6-13.4,51.4-20.1,80.4-20.1    c29.5,0,55.6,7.5,78.4,22.5c22.8,15,39.7,35.1,50.5,60.5c10.9,25.4,16.3,64.9,16.3,118.5v202.9h-50.7v-188    c0-45.4-1.9-75.7-5.6-90.9c-5.9-26.1-17.2-45.7-33.8-58.9c-16.7-13.2-38.4-19.7-65.2-19.7c-30.7,0-58.2,10.1-82.4,30.4    c-24.3,20.3-40.3,45.4-48,75.4c-4.8,19.6-7.2,55.3-7.2,107.2v144.6h-50.7V681.7z"
   id="path4" />
		<path
   class="st0"
   d="M2355.6,945.1l42.8,22.5c-14,27.5-30.2,49.8-48.6,66.7c-18.4,16.9-39,29.8-62,38.6c-23,8.8-49,13.2-78,13.2    c-64.3,0-114.6-21.1-150.9-63.2c-36.3-42.1-54.4-89.8-54.4-142.9c0-50,15.3-94.6,46.1-133.7c38.9-49.8,91-74.6,156.3-74.6    c67.2,0,120.9,25.5,161,76.4c28.5,36,43,80.9,43.5,134.8h-354.7c1,45.8,15.6,83.3,43.9,112.6c28.3,29.3,63.2,43.9,104.8,43.9    c20.1,0,39.6-3.5,58.6-10.5c19-7,35.1-16.2,48.4-27.8C2325.7,989.5,2340.1,970.8,2355.6,945.1z M2355.6,838.9    c-6.8-27-16.6-48.7-29.6-64.9c-12.9-16.2-30-29.2-51.3-39.1c-21.3-9.9-43.7-14.9-67.1-14.9c-38.7,0-71.9,12.4-99.8,37.3    c-20.3,18.1-35.7,45.3-46.1,81.5H2355.6z"
   id="path6" />
		<path
   class="st0"
   d="M2509.2,1075.9V529.5h50.7v219.9c21.2-26.1,45-45.6,71.3-58.5c26.3-12.9,55.1-19.4,86.5-19.4    c55.7,0,103.3,20.2,142.8,60.7c39.5,40.5,59.2,89.6,59.2,147.3c0,57-19.9,105.7-59.7,146c-39.8,40.3-87.7,60.5-143.7,60.5    c-32.1,0-61.2-6.9-87.2-20.7c-26.1-13.8-49.1-34.4-69.1-62v72.5H2509.2z M2712.1,1037.1c28.2,0,54.2-6.9,78.1-20.8    c23.9-13.9,42.8-33.4,56.9-58.5c14.1-25.1,21.2-51.7,21.2-79.7c0-28-7.1-54.7-21.3-80.1c-14.2-25.4-33.3-45.1-57.3-59.2    c-24-14.1-49.6-21.2-76.8-21.2c-27.7,0-54,7.1-79,21.2c-25,14.1-44.1,33.2-57.5,57.1c-13.4,23.9-20.1,50.8-20.1,80.8    c0,45.6,15,83.8,45,114.5C2631.3,1021.8,2668.2,1037.1,2712.1,1037.1z"
   id="path8" />
		<path
   class="st0"
   d="M3011.7,529.5h50.7v311.3l182.8-159.1h74.5l-216.7,188l229.3,206.1H3261l-198.5-177.5v177.5h-50.7V529.5z"
   id="path10" />
		<path
   class="st0"
   d="M3777.3,681.7v394.2h-50v-67.8c-21.3,25.8-45.1,45.3-71.6,58.3c-26.5,13-55.4,19.6-86.8,19.6    c-55.8,0-103.4-20.2-142.9-60.7c-39.5-40.5-59.2-89.7-59.2-147.6c0-56.8,19.9-105.3,59.8-145.6c39.9-40.3,87.8-60.5,143.8-60.5    c32.4,0,61.6,6.9,87.9,20.7c26.2,13.8,49.2,34.4,69,62v-72.5H3777.3z M3574.5,720.4c-28.2,0-54.3,6.9-78.2,20.8    c-23.9,13.9-42.9,33.4-57,58.5c-14.1,25.1-21.2,51.6-21.2,79.6c0,27.8,7.1,54.3,21.3,79.6c14.2,25.3,33.3,45.1,57.4,59.2    c24,14.1,49.8,21.2,77.3,21.2c27.7,0,54-7,78.9-21c24.8-14,44-32.9,57.4-56.8c13.4-23.9,20.1-50.8,20.1-80.7    c0-45.6-15-83.7-45-114.4C3655.4,735.8,3618.4,720.4,3574.5,720.4z"
   id="path12" />
		<path
   class="st0"
   d="M4089.5,724.8l-32.6,33.7c-27.1-26.3-53.6-39.5-79.5-39.5c-16.5,0-30.6,5.4-42.3,16.3    c-11.8,10.9-17.6,23.5-17.6,38c0,12.8,4.8,25,14.5,36.6c9.7,11.8,30,25.7,61,41.7c37.8,19.6,63.4,38.4,77,56.5    c13.3,18.4,20,39,20,62c0,32.4-11.4,59.8-34.1,82.2c-22.7,22.5-51.2,33.7-85.3,33.7c-22.8,0-44.5-5-65.1-14.9    c-20.7-9.9-37.8-23.5-51.3-40.9l31.9-36.2c25.9,29.2,53.4,43.8,82.4,43.8c20.3,0,37.6-6.5,51.9-19.6c14.3-13,21.4-28.4,21.4-46    c0-14.5-4.7-27.4-14.2-38.8c-9.4-11.1-30.7-25.1-63.9-42c-35.6-18.4-59.8-36.5-72.6-54.3c-12.8-17.9-19.2-38.3-19.2-61.2    c0-29.9,10.2-54.8,30.7-74.6c20.4-19.8,46.3-29.7,77.5-29.7C4016.2,671.5,4052.8,689.3,4089.5,724.8z"
   id="path14" />
		<path
   class="st0"
   d="M4235.2,996.2c12.3,0,22.8,4.3,31.5,13c8.7,8.7,13,19.3,13,31.9c0,12.3-4.3,22.9-13,31.7    c-8.7,8.8-19.2,13.2-31.5,13.2c-12.3,0-22.8-4.4-31.5-13.2c-8.7-8.8-13-19.4-13-31.7c0-12.6,4.3-23.2,13-31.9    C4212.4,1000.5,4222.9,996.2,4235.2,996.2z"
   id="path16" />
		<path
   class="st0"
   d="M4365.6,681.7h51.8v57.6c15.5-22.7,31.8-39.7,48.9-50.9c17.1-11.2,35-16.8,53.6-16.8c14,0,29,4.5,44.9,13.4    l-26.5,42.8c-10.6-4.6-19.6-6.9-26.8-6.9c-16.9,0-33.2,6.9-48.9,20.8c-15.7,13.9-27.7,35.5-35.9,64.7    c-6.3,22.5-9.4,67.9-9.4,136.2v133.3h-51.8V681.7z"
   id="path18" />
		<path
   class="st0"
   d="M4794.6,671.5c60.7,0,111.1,22,151,65.9c36.3,40.1,54.4,87.6,54.4,142.4c0,55.1-19.2,103.2-57.5,144.4    c-38.4,41.2-87.7,61.8-147.9,61.8c-60.5,0-109.9-20.6-148.3-61.8c-38.4-41.2-57.5-89.3-57.5-144.4c0-54.6,18.1-101.9,54.4-142    C4683.1,693.6,4733.6,671.5,4794.6,671.5z M4794.4,721.2c-42.2,0-78.4,15.6-108.7,46.7c-30.3,31.2-45.4,68.8-45.4,113    c0,28.5,6.9,55.1,20.7,79.7c13.8,24.6,32.5,43.7,56,57.1c23.5,13.4,49.3,20.1,77.4,20.1c28.1,0,53.9-6.7,77.4-20.1    c23.5-13.4,42.2-32.4,56-57.1c13.8-24.6,20.7-51.2,20.7-79.7c0-44.2-15.2-81.9-45.6-113C4872.5,736.7,4836.3,721.2,4794.4,721.2z"
   id="path20" />
	</g>
	<linearGradient
   id="SVGID_1_"
   gradientUnits="userSpaceOnUse"
   x1="574.8917"
   y1="440.5619"
   x2="1267.9132"
   y2="1133.5835">
		<stop
   offset="0"
   style="stop-color:#119DFF"
   id="stop24" />
		<stop
   offset="1"
   style="stop-color:#12FFA9"
   id="stop26" />
	</linearGradient>
	<path
   class="st1"
   d="M1023.7,444.9l-17.8-10.2l-99-57.2l-33-19c-47.2-27.2-105.3-27.2-152.5,0l-149.8,86.5   c-47.2,27.2-76.2,77.6-76.2,132v172.9c0,54.5,29.1,104.8,76.2,132l17.8,10.3L688,949l33.5,19.3c47.2,27.2,105.3,27.2,152.5,0   l149.7-86.5c47.2-27.2,76.2-77.6,76.2-132V577C1100,522.5,1070.9,472.2,1023.7,444.9z M983.1,832.9l-6,4c-1.1,0.7-2.3,1.5-3.4,2.1   l-68.1,39.3V677.6c0-44.1-1.8-73.6-5.2-87.8c-5.2-23.1-15-40.4-29.1-51.5c-14.3-11.4-32.9-16.9-56.9-16.9   c-27.8,0-51.9,8.9-73.8,27.3c-22.3,18.6-36.6,41-43.6,68.4c-4.5,18.3-6.8,53.3-6.8,103.9v157.2l-69.2-39.9c-0.8-0.5-1.6-1-2.4-1.5   l-6-4V494.7l5.1-4c1.1-0.9,2.2-1.6,3.4-2.3l69-39.9v57.4c14.8-15,30.7-27.2,47.5-36.3c26.6-14.4,55.8-21.8,86.9-21.8   c31.9,0,60.8,8.3,85.8,24.6c25,16.4,43.6,38.8,55.5,66.5c11.7,27.4,17.4,67.9,17.4,123.7V832.9z"
   id="path29" />
	<linearGradient
   id="SVGID_2_"
   gradientUnits="userSpaceOnUse"
   x1="449.8199"
   y1="565.6334"
   x2="1142.8391"
   y2="1258.6526">
		<stop
   offset="0"
   style="stop-color:#119DFF"
   id="stop31" />
		<stop
   offset="1"
   style="stop-color:#12FFA9"
   id="stop33" />
	</linearGradient>
	<path
   class="st2"
   d="M109.2,685.3c5.5,38.1,14,75.8,25.7,112.5c11.6,36.7,26.2,72.5,44.2,106.6c35.7,68.2,82.8,130.6,139.3,183   c56.5,52.4,121.8,95.3,192.4,126.1c70.8,30.5,146.6,49,223.5,54.3c76.9,4.7,154.6-3,228.8-23.8c74.3-20.5,144.7-54.4,207.7-98.8   c62.8-44.6,118.2-99.8,162.5-162.9c44.6-62.9,78-133.5,99-207.6c-16.7,75.3-46.1,148.8-87.9,215.5c-41.4,67-95.1,127.1-157.8,177.3   c-62.9,49.9-134.9,89.8-212.5,115.9c-77.5,26.5-160,39.5-243.5,38.9c-83.4-1.1-167.4-16.8-247.1-46.2   c-79.6-29.7-154.6-73.4-221-128.7c-66.4-55.4-123.5-123.1-168.3-198.9c-22.5-37.9-41.4-78.1-57-119.7C21.7,787.2,9.6,744.2,1,700.3   c-5.8-29.6,13.5-58.3,43.1-64.1c29.6-5.8,58.3,13.5,64.1,43.1c0.2,0.8,0.3,1.7,0.4,2.5L109.2,685.3z"
   id="path36" />
	<linearGradient
   id="SVGID_3_"
   gradientUnits="userSpaceOnUse"
   x1="495.4154"
   y1="520.038"
   x2="1188.4346"
   y2="1213.0571">
		<stop
   offset="0"
   style="stop-color:#119DFF"
   id="stop38" />
		<stop
   offset="1"
   style="stop-color:#12FFA9"
   id="stop40" />
	</linearGradient>
	<path
   class="st3"
   d="M562.5,105l-22.9,13.4c-3.8,2.3-7.7,4.3-11.3,6.9l-11,7.5l-11,7.5l-5.5,3.7c-1.8,1.3-3.5,2.7-5.3,4.1   l-20.9,16.3c-3.6,2.6-6.7,5.7-10.1,8.6l-9.9,8.8l-9.9,8.8c-3.2,3.1-6.2,6.3-9.3,9.4c-6.1,6.4-12.5,12.5-18.5,19l-17.3,20.1l-4.3,5   c-1.4,1.7-2.7,3.5-4,5.3l-8,10.6c-5.3,7.1-10.9,14-15.5,21.5l-14.5,22.2c-4.5,7.6-8.7,15.4-13.1,23.1c-2.1,3.9-4.4,7.7-6.4,11.6   l-5.7,12l-5.7,12c-1.9,4-3.9,7.9-5.5,12.1l-9.8,24.7l-2.4,6.2l-2,6.3l-4.1,12.6c-5.9,16.7-9.5,34.1-13.9,51.2   c-1.8,8.7-3.1,17.4-4.7,26.1l-2.3,13.1l-1.4,13.2l-2.7,26.4l-0.9,26.5c-0.1,4.4-0.4,8.8-0.4,13.3l0.3,13.3l0.3,13.3l1,13.2   c5.1,70.6,23.9,140.1,55.2,203.6c31.2,63.5,74.8,120.9,127.5,168.1c52.7,47.3,114.4,84.4,180.9,108.6   c66.5,24.4,137.8,35.1,208.5,32.8c70.7-2.3,141-18.4,205.7-47.1c-62.8,32.8-132.9,53.8-205.2,60.7c-72.2,6.9-146.9,0.5-218.2-20.8   c-71.4-21.1-139.4-56.4-199-103.7c-59.6-47.3-110.7-106.7-149.2-174.5c-38.5-67.7-64.1-143.9-74.3-222.7l-1.9-14.8l-1.2-14.9   l-1.2-14.9c-0.3-5-0.3-10-0.5-14.9l-0.6-30c0.3-10,0.9-20,1.3-30.1l0.8-15.1l1.7-15c1.2-10,2.2-20.1,3.7-30.1   c3.8-19.8,6.9-40,12.6-59.5l3.9-14.8l2-7.4l2.4-7.3l9.7-29.1c1.5-4.9,3.6-9.6,5.5-14.3l5.8-14.2l5.9-14.2c2.1-4.7,4.4-9.2,6.7-13.9   c4.6-9.2,9-18.5,13.8-27.6l15.5-26.8c5-9.1,11-17.5,16.7-26.1l8.7-12.9c1.5-2.1,2.9-4.3,4.4-6.4l4.7-6.2l19-24.7   c6.6-8,13.6-15.7,20.5-23.6c3.5-3.9,6.9-7.9,10.4-11.7l11.1-11.1l11.1-11.1c3.8-3.6,7.4-7.5,11.4-10.9l23.7-20.7c2-1.7,4-3.5,6-5.1   l6.3-4.8l12.6-9.6l12.6-9.6c4.2-3.3,8.7-6,13.1-9L510.4,9c25.2-16.6,59.1-9.7,75.7,15.5c16.6,25.2,9.7,59.1-15.5,75.7   c-0.7,0.5-1.5,1-2.3,1.4L562.5,105z"
   id="path43" />
	<linearGradient
   id="SVGID_4_"
   gradientUnits="userSpaceOnUse"
   x1="624.7798"
   y1="390.6736"
   x2="1317.799"
   y2="1083.6927">
		<stop
   offset="0"
   style="stop-color:#119DFF"
   id="stop45" />
		<stop
   offset="1"
   style="stop-color:#12FFA9"
   id="stop47" />
	</linearGradient>
	<path
   class="st4"
   d="M1149.7,592.7c2.1-26.7,1.1-53.7-3.1-80.5c-4.3-26.8-12.3-53.1-23.2-78.6c-11.1-25.4-25.6-49.6-42.8-72.1   c-17.5-22.2-37.6-42.9-60.4-60.6c-45.4-35.6-100.4-60.4-159.6-70.3c-29.6-4.9-60.1-6.4-90.5-4.2c-30.4,2.5-60.7,8.7-90.2,18.5   c-29.3,10.2-57.8,23.8-84.4,41c-6.5,4.5-13.3,8.7-19.5,13.6l-9.6,7.2l-9.2,7.6l-4.6,3.8l-4.4,4l-8.9,8.1c-2.9,2.8-5.7,5.7-8.5,8.5   c-2.8,2.8-5.8,5.6-8.4,8.7c-43.9,47.1-76.8,106-93.3,170.6c-8.2,32.2-13,65.8-13,99.7c-0.2,33.9,3.7,68,11.8,101.5   c8.3,33.4,20.8,66,37.1,97c16.5,30.8,37,59.9,60.7,86.4c-25.3-24.9-47.7-52.7-66.5-82.8c-18.5-30.3-33.5-62.7-44.3-96.5   c-10.5-33.9-17-69-19.2-104.4c-2.3-35.4,0.3-71.1,6.6-105.9c12.9-69.8,43.7-136.1,88.3-191.3c22.2-27.7,48.1-52.3,76.2-73.9   c28.3-21.4,59.3-39.1,91.9-53.1c32.7-13.7,67.1-23.4,102.1-28.9c35.1-5.2,70.8-6.2,106.1-3.1c35.4,3.1,70.2,11.1,103.7,22.7   c4.2,1.3,8.3,3,12.5,4.6l12.4,4.9l12.1,5.5l6.1,2.7l5.9,3l11.8,6.1c3.9,2.1,7.7,4.4,11.6,6.6c7.8,4.3,15.1,9.2,22.6,14   c29.6,19.6,56.5,43,80.6,69.1c23.8,26.3,44.5,55.4,61.4,86.6c16.6,31.3,29.8,64.6,38.3,99c8.5,34.4,12.9,69.9,13,105.4l0,4.2   c0.1,30.2-24.3,54.8-54.5,54.9c-30.2,0.1-54.8-24.3-54.9-54.5C1149.5,595.8,1149.6,594.2,1149.7,592.7z"
   id="path50" />
</g>
</svg>